<svg width="433" height="61" viewBox="0 0 433 61" fill="none" xmlns="http://www.w3.org/2000/svg">
<g clip-path="url(#clip0_56_408)">
<path d="M26.2521 53.3667C40.6573 53.3667 52.3349 41.6637 52.3349 27.2273C52.3349 12.7909 40.6573 1.08789 26.2521 1.08789C11.847 1.08789 0.169312 12.7909 0.169312 27.2273C0.169312 41.6637 11.847 53.3667 26.2521 53.3667Z" fill="#FC8001"/>
<path d="M26.3005 2.54243C23.1458 2.53887 20.0281 3.22244 17.163 4.54581C14.298 5.86918 11.7542 7.80075 9.70767 10.2068C7.66117 12.6128 6.16087 15.4358 5.31065 18.4804C4.46042 21.5249 4.28059 24.7183 4.78359 27.8394C7.60172 20.4636 15.2941 15.1667 24.3533 15.1667C31.9187 15.1667 38.5346 18.8576 42.151 24.3727H42.2175C44.3255 24.3182 46.381 25.0357 47.9989 26.3909C48.0594 25.7303 48.0896 25.0636 48.0896 24.3849C48.0896 18.5983 45.7959 13.0488 41.7131 8.95707C37.6302 4.86537 32.0927 2.56668 26.3187 2.56668" fill="#FFCE00"/>
<path d="M47.9989 26.3909C46.3809 25.0357 44.3254 24.3181 42.2175 24.3727H42.151C35.7406 24.4151 28.9977 29.997 27.0322 36.8818C26.0042 40.5485 26.5484 43.8454 28.2417 46.1303C27.5947 46.1909 26.9294 46.2273 26.2642 46.2273C21.0806 46.2313 16.0656 44.3816 12.1213 41.0109C8.17702 37.6402 5.56223 32.9696 4.74725 27.8394C3.99825 29.822 3.61903 31.9256 3.62847 34.0454C3.64997 36.637 4.22889 39.1934 5.32575 41.5404C6.4226 43.8874 8.0116 45.9697 9.98438 47.6454C13.079 50.1156 16.6935 51.8485 20.5546 52.713C24.4157 53.5775 28.4224 53.5511 32.2719 52.6357C36.1213 51.7203 39.7127 49.9399 42.7746 47.429C45.8365 44.9182 48.2888 41.7426 49.9462 38.1424C50.0973 37.7303 50.2364 37.306 50.3574 36.8818C51.5669 32.4879 50.563 28.6212 47.9989 26.3909Z" fill="#FD0024"/>
<path d="M115.713 32.8697L117.4 26.5667C117.481 26.2588 117.481 25.9349 117.398 25.6273C117.316 25.3196 117.154 25.0392 116.929 24.8139C116.705 24.5887 116.425 24.4266 116.118 24.3438C115.811 24.2611 115.488 24.2606 115.18 24.3424L108.891 26.0273C108.586 26.1113 108.308 26.2739 108.085 26.4989C107.862 26.7239 107.701 27.0034 107.62 27.3097C107.538 27.6161 107.537 27.9386 107.618 28.2452C107.699 28.5518 107.858 28.8318 108.081 29.0576L112.683 33.6697C112.907 33.8941 113.186 34.0557 113.492 34.1384C113.798 34.2211 114.12 34.222 114.427 34.1411C114.733 34.0602 115.013 33.9003 115.239 33.6772C115.464 33.4541 115.628 33.1757 115.713 32.8697Z" fill="#FFCE00"/>
<path d="M189.583 25.1606V46.6879C189.583 46.794 189.541 46.8957 189.466 46.9707C189.391 47.0458 189.289 47.0879 189.184 47.0879H184.164C184.059 47.0863 183.959 47.0435 183.886 46.9686C183.812 46.8938 183.771 46.7929 183.771 46.6879V27.0455C183.771 20.8273 180.366 17.1727 174.524 17.1727C168.961 17.1727 164.6 21.0455 164.6 27.1849V46.6879C164.601 46.7929 164.559 46.8938 164.486 46.9686C164.412 47.0435 164.312 47.0863 164.207 47.0879H159.188C159.083 47.0863 158.983 47.0435 158.91 46.9686C158.836 46.8938 158.795 46.7929 158.795 46.6879V27.0455C158.795 20.803 155.42 17.1667 149.548 17.1667C144.106 17.1667 139.588 20.894 139.588 27.1788V46.6818C139.588 46.7869 139.547 46.8877 139.473 46.9626C139.4 47.0374 139.3 47.0802 139.195 47.0818H134.212C134.107 47.0803 134.006 47.0376 133.931 46.9629C133.857 46.8883 133.814 46.7874 133.813 46.6818V12.7424C133.814 12.6374 133.857 12.5372 133.932 12.4635C134.006 12.3898 134.107 12.3485 134.212 12.3485H139.159C139.263 12.3485 139.363 12.39 139.437 12.4639C139.51 12.5378 139.552 12.638 139.552 12.7424V15.6394C139.555 15.7183 139.58 15.7947 139.626 15.8588C139.672 15.923 139.736 15.9721 139.81 16C139.884 16.0279 139.964 16.0332 140.041 16.0154C140.117 15.9976 140.187 15.9575 140.241 15.9C143.005 12.7546 146.984 11.6576 150.576 11.6576C156.019 11.6576 160.343 13.9727 162.671 17.8455C162.706 17.9045 162.756 17.9535 162.815 17.9875C162.874 18.0215 162.942 18.0394 163.01 18.0394C163.078 18.0394 163.146 18.0215 163.205 17.9875C163.264 17.9535 163.314 17.9045 163.349 17.8455C166.185 13.197 171.162 11.6576 175.553 11.6576C183.88 11.6697 189.583 17.0637 189.583 25.1606Z" fill="white"/>
<path d="M230.282 29.2455C230.282 39.4333 222.874 46.8212 213.452 46.8212C208.572 46.8212 204.859 45.0879 202.258 42.3546C202.204 42.2972 202.133 42.2578 202.056 42.2413C201.978 42.2248 201.898 42.2321 201.825 42.2622C201.751 42.2923 201.689 42.3439 201.645 42.4101C201.602 42.4763 201.579 42.5541 201.581 42.6333V59.9182C201.581 60.0227 201.539 60.1229 201.466 60.1968C201.392 60.2706 201.292 60.3121 201.188 60.3121H196.205C196.1 60.3121 195.999 60.2708 195.925 60.1971C195.85 60.1234 195.807 60.0232 195.805 59.9182V12.7727C195.807 12.6677 195.85 12.5675 195.925 12.4938C195.999 12.4201 196.1 12.3788 196.205 12.3788H201.188C201.292 12.3788 201.392 12.4203 201.466 12.4942C201.539 12.5681 201.581 12.6683 201.581 12.7727V15.8576C201.579 15.9368 201.602 16.0147 201.645 16.0809C201.689 16.1471 201.751 16.1986 201.825 16.2287C201.898 16.2588 201.978 16.2661 202.056 16.2497C202.133 16.2332 202.204 16.1937 202.258 16.1364C204.859 13.403 208.572 11.6697 213.452 11.6697C222.874 11.6697 230.282 19.0576 230.282 29.2455ZM201.254 29.2455C201.254 36.1667 206.002 41.3667 212.805 41.3667C219.784 41.3667 224.356 35.9121 224.356 29.2455C224.356 22.5788 219.675 17.1243 212.805 17.1243C205.935 17.1243 201.23 22.3546 201.23 29.2455H201.254Z" fill="white"/>
<path d="M295.722 19.506C295.697 19.5529 295.662 19.594 295.62 19.6267C295.577 19.6594 295.529 19.683 295.477 19.6961C295.426 19.7092 295.372 19.7115 295.319 19.7027C295.267 19.694 295.217 19.6745 295.172 19.6454C291.985 17.7819 288.369 16.7833 284.679 16.7485C280.071 16.7485 277.096 18.7 277.096 21.7545C277.096 24.4515 279.515 25.6939 283.615 26.1909L287.516 26.6879C294.67 27.6454 298.885 30.6636 298.885 36.2394C298.885 42.6636 293.146 46.8212 283.972 46.8212C279.92 46.8212 274.477 45.8697 270.099 42.7121C270.018 42.6514 269.962 42.5623 269.943 42.4625C269.924 42.3626 269.943 42.2592 269.996 42.1727L272.264 38.5364C272.292 38.4893 272.33 38.4486 272.374 38.4172C272.419 38.3857 272.47 38.3641 272.524 38.3538C272.577 38.3435 272.633 38.3447 272.686 38.3574C272.739 38.37 272.789 38.3939 272.832 38.4273C275.312 40.2454 278.62 41.7545 284.002 41.7545C289.529 41.7545 292.934 39.9364 292.934 36.6091C292.934 34.1242 290.739 32.5606 286.167 31.9909L282.273 31.5303C274.725 30.6091 271.073 27.197 271.073 22.0879C271.073 15.6212 276.425 11.7182 284.607 11.7182C289.759 11.7182 294.476 13.0515 297.73 15.1667C297.813 15.2245 297.871 15.3107 297.895 15.4091C297.918 15.5074 297.905 15.611 297.857 15.7L295.722 19.506Z" fill="white"/>
<path d="M325.282 19.506C325.256 19.5531 325.22 19.5943 325.178 19.627C325.135 19.6598 325.086 19.6834 325.034 19.6965C324.982 19.7096 324.928 19.7118 324.875 19.703C324.822 19.6942 324.771 19.6746 324.726 19.6454C321.54 17.7798 317.923 16.7811 314.233 16.7485C309.625 16.7485 306.65 18.7 306.65 21.7545C306.65 24.4515 309.069 25.6939 313.169 26.1909L317.07 26.6879C324.224 27.6454 328.439 30.6636 328.439 36.2394C328.439 42.6636 322.7 46.8212 313.526 46.8212C309.474 46.8212 304.031 45.8697 299.653 42.7121C299.571 42.6514 299.516 42.5623 299.497 42.4625C299.478 42.3626 299.497 42.2592 299.55 42.1727L301.818 38.5364C301.846 38.4893 301.883 38.4486 301.928 38.4172C301.973 38.3857 302.024 38.3641 302.078 38.3538C302.131 38.3435 302.187 38.3447 302.24 38.3574C302.293 38.37 302.343 38.3939 302.386 38.4273C304.866 40.2454 308.18 41.7545 313.562 41.7545C319.089 41.7545 322.488 39.9364 322.488 36.6091C322.488 34.1242 320.293 32.5606 315.721 31.9909L311.826 31.5303C304.279 30.6091 300.627 27.197 300.627 22.0879C300.627 15.6212 305.979 11.7182 314.161 11.7182C319.313 11.7182 324.03 13.0515 327.284 15.1667C327.368 15.2236 327.427 15.3099 327.451 15.4086C327.474 15.5073 327.46 15.6113 327.411 15.7L325.282 19.506Z" fill="white"/>
<path d="M87.4285 37.9303C87.3561 37.8585 87.2583 37.8182 87.1564 37.8182C87.0545 37.8182 86.9567 37.8585 86.8843 37.9303C81.9072 42.6454 74.88 42.506 70.2113 37.8273C65.4278 33.0333 65.3734 25.8273 70.3867 20.8273C75.2731 15.9303 82.264 15.8818 87.0475 20.4091C87.083 20.4454 87.1254 20.4742 87.1721 20.4939C87.2188 20.5135 87.269 20.5237 87.3197 20.5237C87.3704 20.5237 87.4205 20.5135 87.4673 20.4939C87.514 20.4742 87.5563 20.4454 87.5918 20.4091L90.8937 17.1C90.9316 17.0623 90.9616 17.0174 90.9821 16.968C91.0026 16.9186 91.0132 16.8656 91.0132 16.8121C91.0132 16.7586 91.0026 16.7056 90.9821 16.6562C90.9616 16.6068 90.9316 16.562 90.8937 16.5242C83.6851 9.58484 73.1807 9.6515 66.2079 16.6394C59.1444 23.7182 59.1686 34.4394 66.3833 41.6697C73.4951 48.797 84.0117 48.9424 91.0812 42.1667C91.123 42.1281 91.1563 42.0812 91.1792 42.029C91.202 41.9769 91.2137 41.9206 91.2137 41.8636C91.2137 41.8067 91.202 41.7504 91.1792 41.6982C91.1563 41.646 91.123 41.5992 91.0812 41.5606L87.4285 37.9303Z" fill="white"/>
<path d="M99.723 29.2333C99.8252 29.2318 99.9227 29.1904 99.995 29.118C100.067 29.0456 100.109 28.9479 100.11 28.8455C100.304 21.9909 105.371 17.1061 111.975 17.1061C118.742 17.1061 123.846 22.1849 123.846 29.2273C123.846 36.1546 118.936 41.1364 112.356 41.3485C112.253 41.3501 112.155 41.3923 112.082 41.466C112.01 41.5397 111.969 41.639 111.969 41.7424V46.4152C111.969 46.5229 112.012 46.6261 112.088 46.7023C112.164 46.7784 112.267 46.8212 112.374 46.8212C122.377 46.6212 129.755 39.1242 129.755 29.2455C129.755 19.2273 122.171 11.6697 111.969 11.6697C101.912 11.6697 94.365 19.0152 94.1533 28.8152C94.1525 28.869 94.1624 28.9225 94.1824 28.9724C94.2024 29.0224 94.2321 29.0679 94.2698 29.1062C94.3075 29.1446 94.3525 29.175 94.402 29.1958C94.4516 29.2166 94.5048 29.2273 94.5585 29.2273L99.723 29.2333Z" fill="white"/>
<path d="M266.156 12.3788H261.173C261.068 12.3804 260.968 12.4232 260.894 12.4981C260.821 12.5729 260.78 12.6737 260.78 12.7788V15.8091C257.537 12.9366 253.345 11.3748 249.017 11.4273C239.027 11.4273 231.48 19.0273 231.48 29.2515C231.48 39.3303 238.815 46.8879 248.594 47.1061C248.701 47.1061 248.805 47.0633 248.881 46.9871C248.957 46.911 248.999 46.8077 248.999 46.7V41.5303C249 41.4794 248.991 41.4288 248.972 41.3814C248.953 41.334 248.925 41.2908 248.89 41.2543C248.855 41.2177 248.813 41.1884 248.766 41.1682C248.719 41.148 248.669 41.1372 248.618 41.1364C241.778 40.9485 236.904 35.8697 236.904 29.2515C236.904 22.4697 241.966 17.3545 248.999 17.3545C255.01 17.3545 260.762 21.597 260.762 26.3727V46.7061C260.762 46.8111 260.803 46.9119 260.876 46.9868C260.95 47.0616 261.05 47.1045 261.155 47.1061H266.138C266.243 47.1045 266.344 47.0619 266.418 46.9872C266.493 46.9125 266.535 46.8117 266.537 46.7061V12.7788C266.536 12.6762 266.496 12.578 266.425 12.5038C266.354 12.4296 266.258 12.3849 266.156 12.3788Z" fill="white"/>
<path d="M431.579 34.5909C427.485 34.5909 425.598 32.4879 425.598 28.3909V3.13635H413.043V21.8879C411.601 18.7854 409.305 16.1601 406.424 14.3206C403.544 12.4811 400.2 11.5039 396.785 11.5039C393.369 11.5039 390.025 12.4811 387.145 14.3206C384.265 16.1601 381.968 18.7854 380.526 21.8879V11.8757H368.153V29.5242C368.153 32.706 366.484 34.8636 363.684 34.8636C360.884 34.8636 359.221 32.706 359.221 29.5242V11.8757H346.672V29.6818C346.672 40.5909 353.324 47.4333 363.684 47.4333C371.987 47.4333 377.907 42.8212 379.849 35.3424C381.061 38.8498 383.326 41.8952 386.335 44.0604C389.343 46.2255 392.947 47.4043 396.65 47.4349C400.354 47.4654 403.976 46.3462 407.02 44.231C410.063 42.1157 412.379 39.1081 413.648 35.6212C415.462 43.6212 421.51 47.1667 429.638 47.1667H432.812V34.5909H431.579ZM396.8 34.8636C395.734 34.8648 394.691 34.549 393.804 33.9561C392.917 33.3632 392.225 32.5199 391.817 31.5329C391.408 30.5459 391.301 29.4597 391.509 28.4116C391.716 27.3636 392.23 26.4008 392.984 25.6453C393.738 24.8897 394.698 24.3753 395.744 24.1671C396.79 23.9589 397.874 24.0664 398.858 24.4758C399.843 24.8853 400.685 25.5784 401.276 26.4673C401.868 27.3563 402.183 28.4012 402.182 29.4697C402.177 30.8988 401.609 32.268 400.6 33.2785C399.592 34.289 398.226 34.8588 396.8 34.8636Z" fill="white"/>
</g>
<defs>
<clipPath id="clip0_56_408">
<rect width="433" height="60" fill="white" transform="translate(0 0.5)"/>
</clipPath>
</defs>
</svg>
