<svg width="25" height="24" viewBox="0 0 25 24" fill="none" xmlns="http://www.w3.org/2000/svg">
<path id="Vector" d="M24.4468 1.02859C24.5013 0.892291 24.5147 0.742981 24.4852 0.599166C24.4557 0.455352 24.3846 0.323358 24.2808 0.219548C24.177 0.115738 24.045 0.0446781 23.9012 0.015177C23.7574 -0.0143242 23.6081 -0.000968961 23.4718 0.053587L1.65126 8.78209H1.64976L0.971758 9.05209C0.843344 9.10331 0.731587 9.18903 0.648832 9.29978C0.566077 9.41053 0.515545 9.542 0.502819 9.67967C0.490092 9.81734 0.515665 9.95584 0.576714 10.0799C0.637763 10.2039 0.731911 10.3087 0.848758 10.3826L1.46376 10.7726L1.46526 10.7756L8.95776 15.5426L13.7248 23.0351L13.7278 23.0381L14.1178 23.6531C14.1919 23.7695 14.2967 23.8632 14.4207 23.9238C14.5446 23.9845 14.6829 24.0098 14.8203 23.9969C14.9577 23.984 15.0889 23.9335 15.1994 23.8509C15.3099 23.7683 15.3955 23.6567 15.4468 23.5286L24.4468 1.02859ZM21.6973 3.86359L10.4563 15.1046L10.1338 14.5976C10.0747 14.5045 9.9958 14.4257 9.90276 14.3666L9.39576 14.0441L20.6368 2.80309L22.4038 2.09659L21.6988 3.86359H21.6973Z" fill="white"/>
</svg>
