<svg width="24" height="29" viewBox="0 0 24 29" fill="none" xmlns="http://www.w3.org/2000/svg">
<path d="M12 14.5C12.825 14.5 13.5315 14.2256 14.1195 13.6768C14.7065 13.1289 15 12.47 15 11.7C15 10.93 14.7065 10.2706 14.1195 9.7218C13.5315 9.17393 12.825 8.9 12 8.9C11.175 8.9 10.469 9.17393 9.882 9.7218C9.294 10.2706 9 10.93 9 11.7C9 12.47 9.294 13.1289 9.882 13.6768C10.469 14.2256 11.175 14.5 12 14.5ZM12 28.5C7.975 25.3033 4.969 22.3339 2.982 19.5918C0.994 16.8506 0 14.3133 0 11.98C0 8.48 1.2065 5.69167 3.6195 3.615C6.0315 1.53833 8.825 0.5 12 0.5C15.175 0.5 17.9685 1.53833 20.3805 3.615C22.7935 5.69167 24 8.48 24 11.98C24 14.3133 23.0065 16.8506 21.0195 19.5918C19.0315 22.3339 16.025 25.3033 12 28.5Z" fill="#FFCE00"/>
</svg>
