<svg width="24" height="25" viewBox="0 0 24 25" fill="none" xmlns="http://www.w3.org/2000/svg">
<g id="TelephoneFill" clip-path="url(#clip0_56_575)">
<path id="Vector" fill-rule="evenodd" clip-rule="evenodd" d="M2.82747 1.26648C3.08994 1.00441 3.4051 0.801114 3.75207 0.670061C4.09904 0.539009 4.46991 0.483192 4.84008 0.506311C5.21026 0.529429 5.5713 0.630954 5.89927 0.804158C6.22724 0.977362 6.51466 1.21829 6.74247 1.51098L9.43497 4.96998C9.92847 5.60448 10.1025 6.43098 9.90747 7.21098L9.08697 10.496C9.04455 10.6661 9.04684 10.8443 9.09363 11.0133C9.14041 11.1823 9.23009 11.3364 9.35397 11.4605L13.0395 15.146C13.1637 15.2701 13.318 15.3599 13.4873 15.4067C13.6566 15.4535 13.8351 15.4557 14.0055 15.413L17.289 14.5925C17.6739 14.4962 18.0757 14.4888 18.4639 14.5706C18.8521 14.6525 19.2167 14.8215 19.53 15.065L22.989 17.756C24.2325 18.7235 24.3465 20.561 23.2335 21.6725L21.6825 23.2235C20.5725 24.3335 18.9135 24.821 17.367 24.2765C13.4087 22.8838 9.81488 20.6177 6.85197 17.6465C3.88091 14.684 1.61489 11.0907 0.221974 7.13298C-0.321026 5.58798 0.166474 3.92748 1.27647 2.81748L2.82747 1.26648Z" fill="#FFCE00"/>
</g>
<defs>
<clipPath id="clip0_56_575">
<rect width="24" height="24" fill="white" transform="translate(0 0.5)"/>
</clipPath>
</defs>
</svg>
